<svg width="54" height="94" viewBox="0 0 54 94" fill="none" xmlns="http://www.w3.org/2000/svg">
<g filter="url(#filter0_d_157_13)">
<path fill-rule="evenodd" clip-rule="evenodd" d="M31.8557 85.5676C29.3978 88.8108 24.6022 88.8108 22.1443 85.5676C15.6677 77.0214 10.5627 67.4784 7.02065 57.2957L6.37894 55.4509C4.96964 51.3996 7.65429 47.1373 11.733 46.5911C15.0943 46.141 18.5015 45.8416 21.9239 45.6929C15.5517 37.2215 10.5225 27.7798 7.02065 17.713L6.37894 15.8682C4.96964 11.8169 7.65429 7.55456 11.733 7.00842C21.7743 5.66386 32.2257 5.66386 42.267 7.00842C46.3457 7.55456 49.0303 11.8169 47.621 15.8682L46.9793 17.713C43.4775 27.7798 38.4483 37.2215 32.0761 45.6929C35.4985 45.8416 38.9057 46.141 42.267 46.5911C46.3457 47.1373 49.0304 51.3996 47.6211 55.451L46.9793 57.2957C43.4373 67.4784 38.3323 77.0214 31.8557 85.5676ZM26.7436 81.9341C26.8734 82.1054 27.1266 82.1054 27.2565 81.9341C33.356 73.8856 38.1636 64.8983 41.4995 55.3086L42.1412 53.4638C42.2791 53.0672 42.016 52.5458 41.5108 52.4781C31.9715 51.2008 22.0285 51.2008 12.4892 52.4781C11.984 52.5458 11.7209 53.0672 11.8588 53.4638L12.5005 55.3086C15.8364 64.8983 20.644 73.8856 26.7436 81.9341ZM26.7436 42.3514C26.8734 42.5227 27.1266 42.5227 27.2565 42.3514C33.356 34.3029 38.1636 25.3156 41.4995 15.7259L42.1412 13.8811C42.2791 13.4845 42.016 12.9631 41.5108 12.8954C31.9715 11.6181 22.0285 11.6181 12.4892 12.8954C11.984 12.9631 11.7209 13.4845 11.8588 13.8811L12.5005 15.7259C15.8364 25.3156 20.644 34.3029 26.7436 42.3514Z" fill="#FF7A00"/>
</g>
<defs>
<filter id="filter0_d_157_13" x="0" y="0" width="54" height="94" filterUnits="userSpaceOnUse" color-interpolation-filters="sRGB">
<feFlood flood-opacity="0" result="BackgroundImageFix"/>
<feColorMatrix in="SourceAlpha" type="matrix" values="0 0 0 0 0 0 0 0 0 0 0 0 0 0 0 0 0 0 127 0" result="hardAlpha"/>
<feOffset/>
<feGaussianBlur stdDeviation="3"/>
<feComposite in2="hardAlpha" operator="out"/>
<feColorMatrix type="matrix" values="0 0 0 0 0.933333 0 0 0 0 0.901961 0 0 0 0 0.870588 0 0 0 1 0"/>
<feBlend mode="normal" in2="BackgroundImageFix" result="effect1_dropShadow_157_13"/>
<feBlend mode="normal" in="SourceGraphic" in2="effect1_dropShadow_157_13" result="shape"/>
</filter>
</defs>
</svg>
