<svg width="54" height="93" viewBox="0 0 54 93" fill="none" xmlns="http://www.w3.org/2000/svg">
<g filter="url(#filter0_d_157_13)">
<path fill-rule="evenodd" clip-rule="evenodd" d="M31.8557 83.9305C29.3978 87.107 24.6022 87.107 22.1443 83.9305C15.6677 75.5602 10.5627 66.2135 7.02065 56.2403L6.37894 54.4335C4.96964 50.4655 7.65429 46.2909 11.733 45.756C15.0943 45.3152 18.5015 45.0219 21.9239 44.8762C15.5517 36.5792 10.5225 27.3317 7.02065 17.472L6.37894 15.6652C4.96964 11.6972 7.65429 7.52262 11.733 6.98771C21.7743 5.67081 32.2257 5.67081 42.267 6.98771C46.3457 7.52262 49.0303 11.6972 47.621 15.6652L46.9793 17.472C43.4775 27.3317 38.4483 36.5792 32.0761 44.8762C35.4985 45.0219 38.9057 45.3152 42.267 45.756C46.3457 46.2909 49.0304 50.4655 47.6211 54.4335L46.9793 56.2403C43.4373 66.2135 38.3323 75.5601 31.8557 83.9305ZM26.7436 80.3718C26.8734 80.5396 27.1266 80.5396 27.2565 80.3718C33.356 72.4889 38.1636 63.6865 41.4995 54.2941L42.1412 52.4873C42.2791 52.0988 42.016 51.5881 41.5108 51.5219C31.9715 50.2708 22.0285 50.2708 12.4892 51.5219C11.984 51.5881 11.7209 52.0988 11.8588 52.4873L12.5005 54.2941C15.8364 63.6865 20.644 72.4889 26.7436 80.3718ZM26.7436 41.6035C26.8734 41.7713 27.1266 41.7713 27.2565 41.6035C33.356 33.7206 38.1636 24.9182 41.4995 15.5258L42.1412 13.719C42.2791 13.3305 42.016 12.8198 41.5108 12.7536C31.9715 11.5025 22.0285 11.5025 12.4892 12.7536C11.984 12.8198 11.7209 13.3305 11.8588 13.719L12.5005 15.5258C15.8364 24.9182 20.644 33.7206 26.7436 41.6035Z" fill="#FF7A00"/>
</g>
<defs>
<filter id="filter0_d_157_13" x="0" y="6.10352e-05" width="54" height="92.3128" filterUnits="userSpaceOnUse" color-interpolation-filters="sRGB">
<feFlood flood-opacity="0" result="BackgroundImageFix"/>
<feColorMatrix in="SourceAlpha" type="matrix" values="0 0 0 0 0 0 0 0 0 0 0 0 0 0 0 0 0 0 127 0" result="hardAlpha"/>
<feOffset/>
<feGaussianBlur stdDeviation="3"/>
<feComposite in2="hardAlpha" operator="out"/>
<feColorMatrix type="matrix" values="0 0 0 0 0.933333 0 0 0 0 0.901961 0 0 0 0 0.870588 0 0 0 1 0"/>
<feBlend mode="normal" in2="BackgroundImageFix" result="effect1_dropShadow_157_13"/>
<feBlend mode="normal" in="SourceGraphic" in2="effect1_dropShadow_157_13" result="shape"/>
</filter>
</defs>
</svg>
