<svg width="32" height="25" viewBox="0 0 32 25" fill="none" xmlns="http://www.w3.org/2000/svg">
<path fill-rule="evenodd" clip-rule="evenodd" d="M0.31918 6.45981C-0.144833 10.7711 -0.12415 15.7434 0.521532 20.0372C0.878801 22.413 2.81783 24.2344 5.21136 24.4425L7.71282 24.6599C12.9287 25.1134 18.1741 25.1134 23.39 24.6599L25.8915 24.4425C28.285 24.2344 30.224 22.413 30.5813 20.0372C31.227 15.7434 31.2477 10.7714 30.7837 6.46008C30.7237 5.96026 30.6563 5.46111 30.5813 4.9628C30.224 2.58696 28.285 0.765568 25.8915 0.557504L23.39 0.340056C18.1741 -0.113352 12.9287 -0.113352 7.71282 0.340056L5.21136 0.557504C2.81783 0.765569 0.878801 2.58696 0.521532 4.9628C0.446611 5.46102 0.37916 5.96008 0.31918 6.45981ZM7.92798 2.81524C13.0007 2.37427 18.1021 2.37427 23.1749 2.81524L25.6763 3.03268C26.9258 3.14129 27.9379 4.09206 28.1244 5.33226C28.1438 5.46105 28.1626 5.5899 28.181 5.71881L18.97 10.836C16.844 12.0171 14.2588 12.0171 12.1327 10.836L2.92189 5.71887C2.94021 5.58994 2.95905 5.46107 2.97842 5.33226C3.16492 4.09206 4.17709 3.14129 5.42652 3.03268L7.92798 2.81524ZM28.485 8.39209C28.8063 12.1483 28.6861 15.9328 28.1244 19.6677C27.9379 20.9079 26.9258 21.8587 25.6763 21.9673L23.1749 22.1848C18.1021 22.6257 13.0007 22.6257 7.92799 22.1848L5.42652 21.9673C4.1771 21.8587 3.16492 20.9079 2.97842 19.6677C2.41677 15.9328 2.29659 12.1483 2.61787 8.39215L10.9261 13.0078C13.8026 14.6059 17.3002 14.6059 20.1766 13.0078L28.485 8.39209Z" fill="black"/>
</svg>
