<svg width="25" height="25" viewBox="0 0 25 25" fill="none" xmlns="http://www.w3.org/2000/svg">
<path fill-rule="evenodd" clip-rule="evenodd" d="M12.5 0.78125C5.88151 0.78125 0.520832 6.14193 0.520832 12.7604C0.520832 18.0612 3.94987 22.5384 8.71159 24.1256C9.31055 24.2305 9.53516 23.8711 9.53516 23.5566C9.53516 23.2721 9.52018 22.3288 9.52018 21.3255C6.51042 21.8796 5.73177 20.5918 5.49219 19.918C5.35742 19.5736 4.77344 18.5104 4.26432 18.2259C3.84505 18.0013 3.24609 17.4473 4.24935 17.4323C5.19271 17.4173 5.86653 18.3008 6.09114 18.6602C7.16927 20.472 8.89128 19.9629 9.58008 19.6484C9.68489 18.8698 9.99935 18.3457 10.3437 18.0462C7.67838 17.7467 4.89323 16.7135 4.89323 12.1315C4.89323 10.8288 5.35742 9.75065 6.12109 8.91211C6.0013 8.61263 5.58203 7.38476 6.24088 5.73763C6.24088 5.73763 7.24414 5.42318 9.53516 6.96549C10.4935 6.69596 11.5117 6.5612 12.5299 6.5612C13.5482 6.5612 14.5664 6.69596 15.5247 6.96549C17.8158 5.4082 18.819 5.73763 18.819 5.73763C19.4779 7.38476 19.0586 8.61263 18.9388 8.91211C19.7025 9.75065 20.1667 10.8138 20.1667 12.1315C20.1667 16.7285 17.3665 17.7467 14.7012 18.0462C15.1354 18.4206 15.5098 19.1393 15.5098 20.2624C15.5098 21.8646 15.4948 23.1523 15.4948 23.5566C15.4948 23.8711 15.7194 24.2454 16.3184 24.1256C21.0501 22.5384 24.4792 18.0462 24.4792 12.7604C24.4792 6.14193 19.1185 0.78125 12.5 0.78125V0.78125Z" fill="#EEE6DE"/>
</svg>
