<svg width="28" height="28" viewBox="0 0 28 28" fill="none" xmlns="http://www.w3.org/2000/svg">
<path d="M8.15587 8.17851C8.63885 7.69553 9.42191 7.69553 9.90489 8.17851L13.9774 12.251L18.0498 8.17852C18.5328 7.69554 19.3159 7.69554 19.7988 8.17852C20.2818 8.6615 20.2818 9.44456 19.7988 9.92754L15.7264 14L19.7988 18.0724C20.2818 18.5554 20.2818 19.3385 19.7988 19.8214C19.3158 20.3044 18.5328 20.3044 18.0498 19.8214L13.9774 15.749L9.9049 19.8215C9.42192 20.3044 8.63886 20.3044 8.15589 19.8215C7.67291 19.3385 7.67291 18.5554 8.15589 18.0724L12.2283 14L8.15587 9.92752C7.6729 9.44454 7.6729 8.66148 8.15587 8.17851Z" fill="black"/>
<path fill-rule="evenodd" clip-rule="evenodd" d="M6.2547 0.426774C11.346 -0.142258 16.6086 -0.142258 21.6999 0.426774C24.7116 0.763373 27.1437 3.13568 27.498 6.1648C28.1068 11.3705 28.1068 16.6295 27.498 21.8352C27.1437 24.8643 24.7116 27.2366 21.6999 27.5732C16.6086 28.1423 11.346 28.1423 6.25469 27.5732C3.24301 27.2366 0.810926 24.8643 0.456642 21.8352C-0.152214 16.6295 -0.152214 11.3705 0.456643 6.1648C0.810926 3.13568 3.24302 0.763373 6.2547 0.426774ZM21.4252 2.88495C16.5165 2.33633 11.4382 2.33633 6.52943 2.88495C4.64228 3.09587 3.13172 4.58531 2.91338 6.45214C2.32685 11.467 2.32685 16.533 2.91338 21.5479C3.13172 23.4147 4.64228 24.9041 6.52943 25.1151C11.4382 25.6637 16.5165 25.6637 21.4252 25.1151C23.3124 24.9041 24.8229 23.4147 25.0413 21.5479C25.6278 16.533 25.6278 11.467 25.0413 6.45214C24.8229 4.58531 23.3124 3.09587 21.4252 2.88495Z" fill="black"/>
</svg>
