<svg width="38" height="28" viewBox="0 0 38 28" fill="none" xmlns="http://www.w3.org/2000/svg">
<path fill-rule="evenodd" clip-rule="evenodd" d="M37.7391 14C37.7391 12.9915 36.9216 12.1739 35.913 12.1739H1.82609C0.817566 12.1739 0 12.9915 0 14C0 15.0085 0.817566 15.8261 1.82609 15.8261H35.913C36.9216 15.8261 37.7391 15.0085 37.7391 14Z" fill="black"/>
<path fill-rule="evenodd" clip-rule="evenodd" d="M37.7391 1.82609C37.7391 0.817567 36.9216 0 35.913 0H1.82609C0.817566 0 0 0.817567 0 1.82609C0 2.83461 0.817566 3.65217 1.82609 3.65217H35.913C36.9216 3.65217 37.7391 2.83461 37.7391 1.82609Z" fill="black"/>
<path fill-rule="evenodd" clip-rule="evenodd" d="M37.7391 26.1739C37.7391 25.1654 36.9216 24.3478 35.913 24.3478H1.82609C0.817566 24.3478 0 25.1654 0 26.1739C0 27.1824 0.817566 28 1.82609 28H35.913C36.9216 28 37.7391 27.1824 37.7391 26.1739Z" fill="black"/>
</svg>
