<svg width="27" height="25" viewBox="0 0 27 25" fill="none" xmlns="http://www.w3.org/2000/svg">
<path fill-rule="evenodd" clip-rule="evenodd" d="M6.10707 16.3348C6.0963 16.7826 6.39176 17.1803 6.82366 17.2993C7.25555 17.4183 7.71299 17.228 7.9331 16.8378L9.10745 14.7561C10.5002 12.2872 13.2726 10.9346 16.0757 11.3564L16.27 11.3857C16.305 12.2679 16.3545 13.1497 16.4188 14.0307L16.5071 15.2419C16.5789 16.2269 17.6772 16.7776 18.5094 16.2458C21.2395 14.5013 23.6129 12.2535 25.5031 9.62216L26.0968 8.79578C26.3412 8.45547 26.3412 7.99711 26.0968 7.6568L25.5031 6.83042C23.6129 4.1991 21.2395 1.95128 18.5094 0.206795C17.6772 -0.324978 16.5789 0.22565 16.5071 1.21065L16.4188 2.42188C16.367 3.13215 16.3247 3.84294 16.292 4.55406L14.9668 4.55406C10.1971 4.55405 6.29881 8.35979 6.18416 13.1281L6.10707 16.3348ZM16.3662 9.42591C13.2175 8.95201 10.0988 10.2197 8.16699 12.6645C8.50748 9.19837 11.429 6.50631 14.9668 6.50631L17.2297 6.50631C17.7558 6.50631 18.1873 6.08936 18.2053 5.56356C18.2395 4.56296 18.293 3.56286 18.3659 2.56382L18.3729 2.46691C20.5119 3.97882 22.3864 5.83787 23.9176 7.96941L24.1021 8.22629L23.9176 8.48317C22.3864 10.6147 20.5119 12.4738 18.3729 13.9857L18.3659 13.8888C18.2839 12.7644 18.2264 11.6387 18.1933 10.5125C18.1794 10.0406 17.8298 9.64618 17.3629 9.57591L16.3662 9.42591Z" fill="black"/>
<path d="M22.2342 19.4071C22.3877 18.0948 22.496 16.7785 22.5592 15.4606C22.5661 15.318 22.6307 15.1843 22.7378 15.0898C23.2107 14.6723 23.669 14.2385 24.1117 13.7891C24.2782 13.6201 24.5691 13.7383 24.564 13.9755C24.5234 15.8652 24.3931 17.7535 24.1732 19.6339C23.8653 22.2662 21.7513 24.3291 19.1326 24.6218C14.6208 25.1261 9.95706 25.1261 5.4453 24.6218C2.8266 24.3291 0.712517 22.2662 0.404642 19.6339C-0.134881 15.021 -0.134881 10.3609 0.404642 5.74797C0.712517 3.11564 2.8266 1.05274 5.4453 0.760061C8.42701 0.42681 11.4751 0.313797 14.5018 0.421021C14.7567 0.430048 14.9321 0.679519 14.9003 0.932522C14.8937 0.985215 14.8884 1.03851 14.8845 1.09238L14.8177 2.0084C14.8024 2.21871 14.6229 2.37872 14.4121 2.37133C11.4876 2.26872 8.54211 2.37836 5.66214 2.70024C3.931 2.89372 2.54426 4.2598 2.34368 5.97476C1.82178 10.437 1.82178 14.9449 2.34368 19.4071C2.54426 21.1221 3.931 22.4882 5.66214 22.6816C10.0298 23.1698 14.5481 23.1698 18.9157 22.6816C20.6469 22.4882 22.0336 21.1221 22.2342 19.4071Z" fill="black"/>
</svg>
