<svg width="25" height="25" viewBox="0 0 25 25" fill="none" xmlns="http://www.w3.org/2000/svg">
<path fill-rule="evenodd" clip-rule="evenodd" d="M3.35366 0C1.50148 0 0 1.50148 0 3.35366C0 5.20583 1.50148 6.70732 3.35366 6.70732C5.20583 6.70732 6.70732 5.20583 6.70732 3.35366C6.70732 1.50148 5.20583 0 3.35366 0ZM1.82927 3.35366C1.82927 2.51176 2.51176 1.82927 3.35366 1.82927C4.19556 1.82927 4.87805 2.51176 4.87805 3.35366C4.87805 4.19556 4.19556 4.87805 3.35366 4.87805C2.51176 4.87805 1.82927 4.19556 1.82927 3.35366Z" fill="black"/>
<path fill-rule="evenodd" clip-rule="evenodd" d="M0 8.23171C0 7.72657 0.409496 7.31707 0.914634 7.31707H5.79268C6.29782 7.31707 6.70732 7.72657 6.70732 8.23171V24.0854C6.70732 24.5905 6.29782 25 5.79268 25H0.914634C0.409496 25 0 24.5905 0 24.0854V8.23171ZM1.82927 9.14634V23.1707H4.87805V9.14634H1.82927Z" fill="black"/>
<path fill-rule="evenodd" clip-rule="evenodd" d="M8.53659 8.23171C8.53659 7.72657 8.94608 7.31707 9.45122 7.31707H14.3293C14.8344 7.31707 15.2439 7.72657 15.2439 8.23171V8.76101L15.7747 8.53351C16.6873 8.14239 17.6633 7.89713 18.6503 7.8074C22.0344 7.49975 25 10.159 25 13.5735V24.0854C25 24.5905 24.5905 25 24.0854 25H19.2073C18.7022 25 18.2927 24.5905 18.2927 24.0854V15.5488C18.2927 15.1445 18.1321 14.7568 17.8462 14.4709C17.5603 14.185 17.1726 14.0244 16.7683 14.0244C16.364 14.0244 15.9763 14.185 15.6904 14.4709C15.4045 14.7568 15.2439 15.1445 15.2439 15.5488V24.0854C15.2439 24.5905 14.8344 25 14.3293 25H9.45122C8.94608 25 8.53659 24.5905 8.53659 24.0854V8.23171ZM10.3659 9.14634V23.1707H13.4146V15.5488C13.4146 14.6593 13.768 13.8063 14.3969 13.1774C15.0258 12.5485 15.8788 12.1951 16.7683 12.1951C17.6577 12.1951 18.5108 12.5485 19.1397 13.1774C19.7686 13.8063 20.122 14.6593 20.122 15.5488V23.1707H23.1707V13.5735C23.1707 11.2511 21.1452 9.4174 18.8159 9.62915C18.0183 9.70166 17.2298 9.90009 16.4953 10.2149L14.6896 10.9888C14.407 11.1099 14.0824 11.0809 13.8258 10.9117C13.5691 10.7424 13.4146 10.4555 13.4146 10.1481V9.14634H10.3659Z" fill="black"/>
</svg>
