<svg width="21" height="25" viewBox="0 0 21 25" fill="none" xmlns="http://www.w3.org/2000/svg">
<path fill-rule="evenodd" clip-rule="evenodd" d="M4.54335 10.5845C4.54335 7.41117 7.11587 4.83865 10.2892 4.83865C13.4626 4.83865 16.0351 7.41117 16.0351 10.5845C16.0351 13.7579 13.4626 16.3304 10.2892 16.3304C7.11587 16.3304 4.54335 13.7579 4.54335 10.5845ZM10.2892 6.65314C8.11799 6.65314 6.35784 8.41329 6.35784 10.5845C6.35784 12.7558 8.11799 14.5159 10.2892 14.5159C12.4605 14.5159 14.2206 12.7558 14.2206 10.5845C14.2206 8.41329 12.4605 6.65314 10.2892 6.65314Z" fill="black"/>
<path fill-rule="evenodd" clip-rule="evenodd" d="M0.0365895 9.20172C0.465205 4.00185 4.81049 0 10.028 0H10.5505C15.768 0 20.1133 4.00185 20.5419 9.20172C20.7721 11.995 19.9093 14.7686 18.1352 16.9384L12.3372 24.0291C11.2787 25.3236 9.29977 25.3236 8.24131 24.0292L2.44333 16.9384C0.669172 14.7686 -0.193656 11.995 0.0365895 9.20172ZM10.028 1.81449C5.75482 1.81449 2.19599 5.09204 1.84495 9.35078C1.65332 11.6756 2.37143 13.984 3.84802 15.7898L9.646 22.8806C9.97845 23.2872 10.6 23.2872 10.9325 22.8806L16.7305 15.7898C18.2071 13.984 18.9252 11.6756 18.7335 9.35078C18.3825 5.09204 14.8237 1.81449 10.5505 1.81449H10.028Z" fill="black"/>
</svg>
