<svg width="26" height="25" viewBox="0 0 26 25" fill="none" xmlns="http://www.w3.org/2000/svg">
<path fill-rule="evenodd" clip-rule="evenodd" d="M3.22194 9.71365C5.77452 15.2719 10.3168 19.6909 15.9634 22.0854L15.9812 22.0929L17.0721 22.5791C18.4612 23.198 20.0939 22.7585 20.9845 21.5258L22.8045 19.0069C22.9157 18.8531 22.887 18.6391 22.7393 18.5199L19.562 15.9567C19.4041 15.8292 19.1718 15.8589 19.051 16.022L17.8144 17.6906C17.514 18.0959 16.9717 18.2367 16.5122 18.0287C12.2899 16.1179 8.89702 12.725 6.98623 8.50278C6.77827 8.04325 6.91909 7.5009 7.32433 7.20059L8.99297 5.96399C9.15602 5.84316 9.18569 5.6109 9.05827 5.45296L6.49465 2.27522C6.3755 2.12753 6.16164 2.09884 6.00778 2.20991L3.47522 4.03819C2.23445 4.93392 1.79749 6.58038 2.43083 7.97348L3.22109 9.71179C3.22138 9.71241 3.22166 9.71303 3.22194 9.71365ZM15.1181 24.0538C8.98264 21.4494 4.04781 16.6465 1.27424 10.6057L1.27257 10.602L0.480651 8.86007C-0.574906 6.53823 0.153356 3.79414 2.22131 2.30126L4.75387 0.47298C5.83088 -0.304523 7.32792 -0.103716 8.16197 0.930124L10.7256 4.10786C11.6176 5.2135 11.4098 6.83932 10.2685 7.68514L9.31231 8.39373C10.9274 11.5277 13.4873 14.0875 16.6212 15.7026L17.3298 14.7465C18.1756 13.6051 19.8015 13.3974 20.9071 14.2894L24.0844 16.8526C25.1185 17.6869 25.3191 19.1845 24.5409 20.2615L22.7209 22.7805C21.2366 24.8348 18.5154 25.5674 16.2003 24.5359L15.1181 24.0538Z" fill="black"/>
</svg>
